<svg xmlns="http://www.w3.org/2000/svg">
    <symbol id="Facebook" viewBox="0 0 512 512">
        <title>Facebook</title>
        <g>
	        <g>
		        <path d="M448,0H64C28.704,0,0,28.704,0,64v384c0,35.296,28.704,64,64,64h192V336h-64v-80h64v-64c0-53.024,42.976-96,96-96h64v80
			        h-32c-17.664,0-32-1.664-32,16v64h80l-32,80h-48v176h96c35.296,0,64-28.704,64-64V64C512,28.704,483.296,0,448,0z"/>
	        </g>
        </g>
        <g>
        </g>
        <g>
        </g>
        <g>
        </g>
        <g>
        </g>
        <g>
        </g>
        <g>
        </g>
        <g>
        </g>
        <g>
        </g>
        <g>
        </g>
        <g>
        </g>
        <g>
        </g>
        <g>
        </g>
        <g>
        </g>
        <g>
        </g>
        <g>
        </g>
    </symbol>

    <symbol id="Instagram" viewBox="0 0 512 512">
        <title>Instagram</title>
      <g>
        <g>
          <path d="M352,0H160C71.648,0,0,71.648,0,160v192c0,88.352,71.648,160,160,160h192c88.352,0,160-71.648,160-160V160
			C512,71.648,440.352,0,352,0z M464,352c0,61.76-50.24,112-112,112H160c-61.76,0-112-50.24-112-112V160C48,98.24,98.24,48,160,48
			h192c61.76,0,112,50.24,112,112V352z"/>
        </g>
      </g>
      <g>
        <g>
          <path d="M256,128c-70.688,0-128,57.312-128,128s57.312,128,128,128s128-57.312,128-128S326.688,128,256,128z M256,336
			c-44.096,0-80-35.904-80-80c0-44.128,35.904-80,80-80s80,35.872,80,80C336,300.096,300.096,336,256,336z"/>
        </g>
      </g>
      <g>
        <g>
          <circle cx="393.6" cy="118.4" r="17.056"/>
        </g>
      </g>
      <g>
      </g>
      <g>
      </g>
      <g>
      </g>
      <g>
      </g>
      <g>
      </g>
      <g>
      </g>
      <g>
      </g>
      <g>
      </g>
      <g>
      </g>
      <g>
      </g>
      <g>
      </g>
      <g>
      </g>
      <g>
      </g>
      <g>
      </g>
      <g>
      </g>
    </symbol>

    <symbol id="Linkedin" viewBox="0 0 512 512">
        <title>Linkedin</title>
        <g>
	        <path d="m437 0h-362c-41.351562 0-75 33.648438-75 75v362c0 41.351562 33.648438 75 75 75h362c41.351562 0 75-33.648438 75-75v-362c0-41.351562-33.648438-75-75-75zm-256 406h-60v-210h60zm0-240h-60v-60h60zm210 240h-60v-120c0-16.539062-13.460938-30-30-30s-30 13.460938-30 30v120h-60v-210h60v11.308594c15.71875-4.886719 25.929688-11.308594 45-11.308594 40.691406.042969 75 36.546875 75 79.6875zm0 0"/>
	    </g>
    </symbol>

    <symbol id="Twitter" viewBox="0 0 512 512">
        <title>Twitter</title>
        <g>
	        <path d="m256 0c-141.363281 0-256 114.636719-256 256s114.636719 256 256 256 256-114.636719 256-256-114.636719-256-256-256zm116.886719 199.601562c.113281 2.519532.167969 5.050782.167969 7.59375 0 77.644532-59.101563 167.179688-167.183594 167.183594h.003906-.003906c-33.183594 0-64.0625-9.726562-90.066406-26.394531 4.597656.542969 9.277343.8125 14.015624.8125 27.53125 0 52.867188-9.390625 72.980469-25.152344-25.722656-.476562-47.410156-17.464843-54.894531-40.8125 3.582031.6875 7.265625 1.0625 11.042969 1.0625 5.363281 0 10.558593-.722656 15.496093-2.070312-26.886718-5.382813-47.140624-29.144531-47.140624-57.597657 0-.265624 0-.503906.007812-.75 7.917969 4.402344 16.972656 7.050782 26.613281 7.347657-15.777343-10.527344-26.148437-28.523438-26.148437-48.910157 0-10.765624 2.910156-20.851562 7.957031-29.535156 28.976563 35.554688 72.28125 58.9375 121.117187 61.394532-1.007812-4.304688-1.527343-8.789063-1.527343-13.398438 0-32.4375 26.316406-58.753906 58.765625-58.753906 16.902344 0 32.167968 7.144531 42.890625 18.566406 13.386719-2.640625 25.957031-7.53125 37.3125-14.261719-4.394531 13.714844-13.707031 25.222657-25.839844 32.5 11.886719-1.421875 23.214844-4.574219 33.742187-9.253906-7.863281 11.785156-17.835937 22.136719-29.308593 30.429687zm0 0"/>
	    </g>
    </symbol>

    <symbol id="Youtube" viewBox="0 0 512 512">
        <title>Youtube</title>
        <g>
            <g>
                <path d="M490.24,113.92c-13.888-24.704-28.96-29.248-59.648-30.976C399.936,80.864,322.848,80,256.064,80
                    c-66.912,0-144.032,0.864-174.656,2.912c-30.624,1.76-45.728,6.272-59.744,31.008C7.36,138.592,0,181.088,0,255.904
                    C0,255.968,0,256,0,256c0,0.064,0,0.096,0,0.096v0.064c0,74.496,7.36,117.312,21.664,141.728
                    c14.016,24.704,29.088,29.184,59.712,31.264C112.032,430.944,189.152,432,256.064,432c66.784,0,143.872-1.056,174.56-2.816
                    c30.688-2.08,45.76-6.56,59.648-31.264C504.704,373.504,512,330.688,512,256.192c0,0,0-0.096,0-0.16c0,0,0-0.064,0-0.096
                    C512,181.088,504.704,138.592,490.24,113.92z M192,352V160l160,96L192,352z"/>
            </g>
        </g>
        <g>
        </g>
        <g>
        </g>
        <g>
        </g>
        <g>
        </g>
        <g>
        </g>
        <g>
        </g>
        <g>
        </g>
        <g>
        </g>
        <g>
        </g>
        <g>
        </g>
        <g>
        </g>
        <g>
        </g>
        <g>
        </g>
        <g>
        </g>
        <g>
        </g>
    </symbol>
    
    <symbol id="WebSite" viewBox="0 0 512 512">
        <title>Sitio Web</title>
        <path d="m192 0c-70.898438 0-132.898438 38.699219-166.199219 96l-1.800781 3.199219c-15.300781 27.5-24 59.199219-24 92.800781s8.699219 65.300781 24 92.800781l1.800781 3.199219c33.199219 57.300781 95.300781 96 166.199219 96 100.5 0 183.101562-77.601562 191.300781-176v-32c-8.199219-98.398438-90.800781-176-191.300781-176zm-63.101562 45c-8.398438 14.300781-15.398438 31.5-20.796876 51h-43.800781c16.699219-22.101562 38.800781-39.898438 64.597657-51zm-83.5 211c-8.597657-19.601562-13.398438-41.199219-13.398438-64s4.800781-44.398438 13.5-64h55.601562c-3.300781 19.898438-5.101562 41.300781-5.101562 64s1.800781 44.101562 5.101562 64zm18.902343 32h43.800781c5.398438 19.5 12.398438 36.699219 20.796876 51-25.796876-11.101562-47.898438-28.898438-64.597657-51zm127.699219 64c-18.101562 0-37.398438-24.699219-50-64h100c-12.601562 39.300781-31.898438 64-50 64zm-58.199219-96c-3.699219-19.398438-5.800781-41-5.800781-64s2.101562-44.601562 5.800781-64h74.199219v-32h-66c12.601562-39.300781 32-64 50-64 28.398438 0 60 60.601562 63.601562 144h-95.601562v32h95.601562c-.703124 17.101562-2.601562 33.199219-5.5 48zm121.300781 83c18.5-31.601562 30.597657-77.5 32.597657-131h63.5c-5.898438 58.898438-43.800781 108.5-96.097657 131zm32.597657-163c-2-53.398438-14-99.398438-32.597657-131 52.296876 22.5 90.199219 72.101562 96.097657 131zm0 0"/>
    </symbol>
    
</svg>